# xmcd CD database file
#
# Track frame offsets:
#	150
#	16116
#	30556
#	43624
#	54409
#	70916
#	84448
#	103988
#	120501
#	132730
#	142992
#	165002
#	179304
#	195214
#	205425
#	215519
#	232268
#	241483
#	253020
#	269923
#
# Disc length: 3850 seconds
#
# Revision: 2
# Processed by: cddbd v1.5.1PL0 Copyright (c) Steve Scherf et al.
# Submitted via: CDex 1.51
#
DISCID=210f0814
DTITLE=Various Artist - The Acoustic Collection, Volume I
DYEAR=2000
DGENRE=Blues
TTITLE0=La Lsla Bonita
TTITLE1=And I Love Her
TTITLE2=Don't Let the Sun Catch You Crying
TTITLE3=Guantanamera
TTITLE4=Light My Fire
TTITLE5=Flamenco
TTITLE6=Summer Breeze
TTITLE7=Now or Never
TTITLE8=Save the Last Dance for Me
TTITLE9=Sundown
TTITLE10=Nights in White Satin
TTITLE11=Cavatina
TTITLE12=Girl You'll Be a Woman Soon
TTITLE13=Here, There and Everywhere
TTITLE14=Dream Dream Dream
TTITLE15=Lay Lady Lay
TTITLE16=If
TTITLE17=If I Fell
TTITLE18=In Sleep
TTITLE19=Moody Mambo
EXTD=YEAR: 2000
EXTT0=
EXTT1=
EXTT2=
EXTT3=
EXTT4=
EXTT5=
EXTT6=
EXTT7=
EXTT8=
EXTT9=
EXTT10=
EXTT11=
EXTT12=
EXTT13=
EXTT14=
EXTT15=
EXTT16=
EXTT17=
EXTT18=
EXTT19=
PLAYORDER=
